<mxfile host="app.diagrams.net" agent="Mozilla/5.0 (Windows NT 10.0; Win64; x64) AppleWebKit/537.36 (KHTML, like Gecko) Chrome/132.0.0.0 Safari/537.36 OPR/117.0.0.0" version="26.1.1">
  <diagram name="Página-1" id="sVMjku9XJ-7ZxxkHLh47">
    <mxGraphModel dx="1392" dy="831" grid="1" gridSize="10" guides="1" tooltips="1" connect="1" arrows="1" fold="1" page="1" pageScale="1" pageWidth="827" pageHeight="1169" math="0" shadow="0">
      <root>
        <mxCell id="0" />
        <mxCell id="1" parent="0" />
        <mxCell id="h3SmYqttCcz-rXUIlqeC-15" style="edgeStyle=orthogonalEdgeStyle;rounded=0;orthogonalLoop=1;jettySize=auto;html=1;exitX=0.5;exitY=1;exitDx=0;exitDy=0;entryX=0.5;entryY=0;entryDx=0;entryDy=0;" edge="1" parent="1" source="h3SmYqttCcz-rXUIlqeC-3" target="h3SmYqttCcz-rXUIlqeC-14">
          <mxGeometry relative="1" as="geometry" />
        </mxCell>
        <mxCell id="h3SmYqttCcz-rXUIlqeC-3" value="inicio" style="rounded=1;whiteSpace=wrap;html=1;fontSize=35;" vertex="1" parent="1">
          <mxGeometry x="354" y="60" width="120" height="60" as="geometry" />
        </mxCell>
        <mxCell id="h3SmYqttCcz-rXUIlqeC-11" style="edgeStyle=orthogonalEdgeStyle;rounded=0;orthogonalLoop=1;jettySize=auto;html=1;exitX=0.5;exitY=1;exitDx=0;exitDy=0;entryX=0.5;entryY=0;entryDx=0;entryDy=0;" edge="1" parent="1" source="h3SmYqttCcz-rXUIlqeC-7" target="h3SmYqttCcz-rXUIlqeC-10">
          <mxGeometry relative="1" as="geometry" />
        </mxCell>
        <mxCell id="h3SmYqttCcz-rXUIlqeC-7" value="letra" style="shape=manualInput;whiteSpace=wrap;html=1;fontSize=35;" vertex="1" parent="1">
          <mxGeometry x="336" y="250" width="156" height="80" as="geometry" />
        </mxCell>
        <mxCell id="h3SmYqttCcz-rXUIlqeC-17" style="edgeStyle=orthogonalEdgeStyle;rounded=0;orthogonalLoop=1;jettySize=auto;html=1;exitX=1;exitY=0.5;exitDx=0;exitDy=0;entryX=0.5;entryY=0;entryDx=0;entryDy=0;" edge="1" parent="1" source="h3SmYqttCcz-rXUIlqeC-10" target="h3SmYqttCcz-rXUIlqeC-13">
          <mxGeometry relative="1" as="geometry" />
        </mxCell>
        <mxCell id="h3SmYqttCcz-rXUIlqeC-18" value="sim&lt;div&gt;&lt;br&gt;&lt;/div&gt;" style="edgeLabel;html=1;align=center;verticalAlign=middle;resizable=0;points=[];" vertex="1" connectable="0" parent="h3SmYqttCcz-rXUIlqeC-17">
          <mxGeometry x="0.8938" y="-1" relative="1" as="geometry">
            <mxPoint as="offset" />
          </mxGeometry>
        </mxCell>
        <mxCell id="h3SmYqttCcz-rXUIlqeC-43" style="edgeStyle=orthogonalEdgeStyle;rounded=0;orthogonalLoop=1;jettySize=auto;html=1;exitX=0;exitY=0.5;exitDx=0;exitDy=0;entryX=0.5;entryY=0;entryDx=0;entryDy=0;" edge="1" parent="1" source="h3SmYqttCcz-rXUIlqeC-10" target="h3SmYqttCcz-rXUIlqeC-42">
          <mxGeometry relative="1" as="geometry" />
        </mxCell>
        <mxCell id="h3SmYqttCcz-rXUIlqeC-10" value="esta letra esta na palavra" style="rhombus;whiteSpace=wrap;html=1;" vertex="1" parent="1">
          <mxGeometry x="346" y="370" width="136" height="80" as="geometry" />
        </mxCell>
        <mxCell id="h3SmYqttCcz-rXUIlqeC-21" style="edgeStyle=orthogonalEdgeStyle;rounded=0;orthogonalLoop=1;jettySize=auto;html=1;exitX=0.5;exitY=1;exitDx=0;exitDy=0;" edge="1" parent="1" source="h3SmYqttCcz-rXUIlqeC-13" target="h3SmYqttCcz-rXUIlqeC-20">
          <mxGeometry relative="1" as="geometry" />
        </mxCell>
        <mxCell id="h3SmYqttCcz-rXUIlqeC-13" value="coloca a letra no local&amp;nbsp;" style="whiteSpace=wrap;html=1;" vertex="1" parent="1">
          <mxGeometry x="482" y="480" width="120" height="60" as="geometry" />
        </mxCell>
        <mxCell id="h3SmYqttCcz-rXUIlqeC-14" value="defina uma palavra aleatoria" style="rounded=0;whiteSpace=wrap;html=1;" vertex="1" parent="1">
          <mxGeometry x="354" y="160" width="120" height="60" as="geometry" />
        </mxCell>
        <mxCell id="h3SmYqttCcz-rXUIlqeC-16" style="edgeStyle=orthogonalEdgeStyle;rounded=0;orthogonalLoop=1;jettySize=auto;html=1;exitX=0.5;exitY=1;exitDx=0;exitDy=0;entryX=0.506;entryY=0.175;entryDx=0;entryDy=0;entryPerimeter=0;" edge="1" parent="1" source="h3SmYqttCcz-rXUIlqeC-14" target="h3SmYqttCcz-rXUIlqeC-7">
          <mxGeometry relative="1" as="geometry" />
        </mxCell>
        <mxCell id="h3SmYqttCcz-rXUIlqeC-32" style="edgeStyle=orthogonalEdgeStyle;rounded=0;orthogonalLoop=1;jettySize=auto;html=1;exitX=1;exitY=0.5;exitDx=0;exitDy=0;exitPerimeter=0;entryX=1;entryY=0.5;entryDx=0;entryDy=0;" edge="1" parent="1" source="h3SmYqttCcz-rXUIlqeC-20" target="h3SmYqttCcz-rXUIlqeC-7">
          <mxGeometry relative="1" as="geometry">
            <Array as="points">
              <mxPoint x="680" y="620" />
              <mxPoint x="680" y="290" />
            </Array>
          </mxGeometry>
        </mxCell>
        <mxCell id="h3SmYqttCcz-rXUIlqeC-33" value="não" style="edgeLabel;html=1;align=center;verticalAlign=middle;resizable=0;points=[];" vertex="1" connectable="0" parent="h3SmYqttCcz-rXUIlqeC-32">
          <mxGeometry x="-0.8997" relative="1" as="geometry">
            <mxPoint as="offset" />
          </mxGeometry>
        </mxCell>
        <mxCell id="h3SmYqttCcz-rXUIlqeC-20" value="a palavra esta completa" style="strokeWidth=2;html=1;shape=mxgraph.flowchart.decision;whiteSpace=wrap;" vertex="1" parent="1">
          <mxGeometry x="492" y="570" width="100" height="100" as="geometry" />
        </mxCell>
        <mxCell id="h3SmYqttCcz-rXUIlqeC-46" style="edgeStyle=orthogonalEdgeStyle;rounded=0;orthogonalLoop=1;jettySize=auto;html=1;exitX=1;exitY=0.5;exitDx=0;exitDy=0;exitPerimeter=0;entryX=0.5;entryY=0;entryDx=0;entryDy=0;" edge="1" parent="1" source="h3SmYqttCcz-rXUIlqeC-29" target="h3SmYqttCcz-rXUIlqeC-45">
          <mxGeometry relative="1" as="geometry" />
        </mxCell>
        <mxCell id="h3SmYqttCcz-rXUIlqeC-53" value="sim" style="edgeLabel;html=1;align=center;verticalAlign=middle;resizable=0;points=[];" vertex="1" connectable="0" parent="h3SmYqttCcz-rXUIlqeC-46">
          <mxGeometry x="-0.6104" y="-1" relative="1" as="geometry">
            <mxPoint as="offset" />
          </mxGeometry>
        </mxCell>
        <mxCell id="h3SmYqttCcz-rXUIlqeC-29" value="vidas=0" style="strokeWidth=2;html=1;shape=mxgraph.flowchart.decision;whiteSpace=wrap;" vertex="1" parent="1">
          <mxGeometry x="250" y="570" width="100" height="100" as="geometry" />
        </mxCell>
        <mxCell id="h3SmYqttCcz-rXUIlqeC-34" value="fim" style="rounded=1;whiteSpace=wrap;html=1;" vertex="1" parent="1">
          <mxGeometry x="420" y="820" width="120" height="60" as="geometry" />
        </mxCell>
        <mxCell id="h3SmYqttCcz-rXUIlqeC-41" style="edgeStyle=orthogonalEdgeStyle;rounded=0;orthogonalLoop=1;jettySize=auto;html=1;exitX=0;exitY=0.5;exitDx=0;exitDy=0;exitPerimeter=0;entryX=0.006;entryY=0.625;entryDx=0;entryDy=0;entryPerimeter=0;" edge="1" parent="1" source="h3SmYqttCcz-rXUIlqeC-29" target="h3SmYqttCcz-rXUIlqeC-7">
          <mxGeometry relative="1" as="geometry">
            <Array as="points">
              <mxPoint x="200" y="620" />
              <mxPoint x="200" y="300" />
            </Array>
          </mxGeometry>
        </mxCell>
        <mxCell id="h3SmYqttCcz-rXUIlqeC-54" value="nao" style="edgeLabel;html=1;align=center;verticalAlign=middle;resizable=0;points=[];" vertex="1" connectable="0" parent="h3SmYqttCcz-rXUIlqeC-41">
          <mxGeometry x="-0.9014" y="-3" relative="1" as="geometry">
            <mxPoint as="offset" />
          </mxGeometry>
        </mxCell>
        <mxCell id="h3SmYqttCcz-rXUIlqeC-42" value="perde 1 vida" style="rounded=0;whiteSpace=wrap;html=1;" vertex="1" parent="1">
          <mxGeometry x="240" y="480" width="120" height="60" as="geometry" />
        </mxCell>
        <mxCell id="h3SmYqttCcz-rXUIlqeC-44" style="edgeStyle=orthogonalEdgeStyle;rounded=0;orthogonalLoop=1;jettySize=auto;html=1;exitX=0.5;exitY=1;exitDx=0;exitDy=0;entryX=0.5;entryY=0;entryDx=0;entryDy=0;entryPerimeter=0;" edge="1" parent="1" source="h3SmYqttCcz-rXUIlqeC-42" target="h3SmYqttCcz-rXUIlqeC-29">
          <mxGeometry relative="1" as="geometry" />
        </mxCell>
        <mxCell id="h3SmYqttCcz-rXUIlqeC-50" style="edgeStyle=orthogonalEdgeStyle;rounded=0;orthogonalLoop=1;jettySize=auto;html=1;exitX=0;exitY=0.5;exitDx=0;exitDy=0;entryX=0;entryY=0.5;entryDx=0;entryDy=0;" edge="1" parent="1" source="h3SmYqttCcz-rXUIlqeC-45" target="h3SmYqttCcz-rXUIlqeC-34">
          <mxGeometry relative="1" as="geometry" />
        </mxCell>
        <mxCell id="h3SmYqttCcz-rXUIlqeC-45" value="perdeu" style="rounded=0;whiteSpace=wrap;html=1;" vertex="1" parent="1">
          <mxGeometry x="354" y="710" width="120" height="60" as="geometry" />
        </mxCell>
        <mxCell id="h3SmYqttCcz-rXUIlqeC-51" style="edgeStyle=orthogonalEdgeStyle;rounded=0;orthogonalLoop=1;jettySize=auto;html=1;exitX=1;exitY=0.5;exitDx=0;exitDy=0;entryX=1;entryY=0.5;entryDx=0;entryDy=0;" edge="1" parent="1" source="h3SmYqttCcz-rXUIlqeC-48" target="h3SmYqttCcz-rXUIlqeC-34">
          <mxGeometry relative="1" as="geometry" />
        </mxCell>
        <mxCell id="h3SmYqttCcz-rXUIlqeC-48" value="ganhou" style="rounded=0;whiteSpace=wrap;html=1;" vertex="1" parent="1">
          <mxGeometry x="475" y="710" width="120" height="60" as="geometry" />
        </mxCell>
        <mxCell id="h3SmYqttCcz-rXUIlqeC-49" style="edgeStyle=orthogonalEdgeStyle;rounded=0;orthogonalLoop=1;jettySize=auto;html=1;exitX=0.5;exitY=1;exitDx=0;exitDy=0;exitPerimeter=0;entryX=0.558;entryY=0.017;entryDx=0;entryDy=0;entryPerimeter=0;" edge="1" parent="1" source="h3SmYqttCcz-rXUIlqeC-20" target="h3SmYqttCcz-rXUIlqeC-48">
          <mxGeometry relative="1" as="geometry" />
        </mxCell>
        <mxCell id="h3SmYqttCcz-rXUIlqeC-52" value="sim" style="edgeLabel;html=1;align=center;verticalAlign=middle;resizable=0;points=[];" vertex="1" connectable="0" parent="h3SmYqttCcz-rXUIlqeC-49">
          <mxGeometry x="-0.6099" y="-2" relative="1" as="geometry">
            <mxPoint as="offset" />
          </mxGeometry>
        </mxCell>
      </root>
    </mxGraphModel>
  </diagram>
</mxfile>
